<svg width="872" height="350" viewBox="0 0 872 350" fill="none" xmlns="http://www.w3.org/2000/svg">
<path d="M513.581 193.893H522.763C521.792 201.999 518.161 208.605 511.871 213.713C505.624 218.821 498.025 221.375 489.075 221.375C478.1 221.375 469.234 217.977 462.48 211.18C455.726 204.384 452.349 195.498 452.349 184.522C452.349 173.546 455.726 164.681 462.48 157.927C469.234 151.13 478.1 147.732 489.075 147.732C497.729 147.732 505.096 150.054 511.175 154.697C517.296 159.341 520.947 165.399 522.129 172.871H512.758C511.111 167.509 508.22 163.414 504.083 160.586C499.946 157.715 494.838 156.28 488.759 156.28C480.654 156.28 474.089 158.876 469.066 164.069C464.042 169.261 461.53 176.079 461.53 184.522C461.53 193.091 464.021 199.909 469.002 204.975C473.984 210.041 480.675 212.573 489.075 212.573C495.323 212.573 500.663 210.885 505.096 207.508C509.571 204.088 512.399 199.55 513.581 193.893Z" fill="white"/>
<path d="M536.44 218.906V125.252H545.369V218.906H536.44Z" fill="white"/>
<path d="M570.064 184.522C570.064 193.091 572.555 199.909 577.536 204.975C582.517 210.041 589.208 212.573 597.609 212.573C605.968 212.573 612.638 210.041 617.619 204.975C622.6 199.867 625.091 193.049 625.091 184.522C625.091 175.994 622.6 169.198 617.619 164.132C612.638 159.066 605.968 156.533 597.609 156.533C589.208 156.533 582.517 159.066 577.536 164.132C572.555 169.198 570.064 175.994 570.064 184.522ZM560.882 184.522C560.882 173.546 564.26 164.681 571.014 157.927C577.768 151.13 586.633 147.732 597.609 147.732C608.543 147.732 617.408 151.13 624.204 157.927C631.001 164.723 634.399 173.588 634.399 184.522C634.399 195.498 631.001 204.384 624.204 211.18C617.408 217.977 608.543 221.375 597.609 221.375C586.633 221.375 577.768 217.977 571.014 211.18C564.26 204.384 560.882 195.498 560.882 184.522Z" fill="white"/>
<path d="M324.727 221.4V152.927C324.727 152.927 347.367 152.914 395.837 152.938C452.059 152.966 451.544 221.426 395.837 221.4C350.862 221.378 324.727 221.4 324.727 221.4Z" fill="white"/>
<path d="M430.549 187.168C430.549 202.238 417.775 214.454 402.018 214.454C386.262 214.454 373.488 202.238 373.488 187.168C373.488 172.099 386.262 159.883 402.018 159.883C417.775 159.883 430.549 172.099 430.549 187.168Z" fill="#9ED500"/>
<path d="M0 200.021H9.11836C9.75158 205.129 12.0523 208.992 16.0205 211.609C20.0308 214.184 25.6876 215.472 32.9907 215.472C40.716 215.472 46.5838 214.395 50.5942 212.242C54.6468 210.047 56.6731 206.881 56.6731 202.744C56.6731 199.831 55.66 197.573 53.6337 195.969C51.6496 194.322 48.3991 193.161 43.8821 192.486L23.8724 189.51C16.0627 188.37 10.427 186.323 6.96541 183.368C3.54603 180.413 1.83634 176.191 1.83634 170.703C1.83634 164.498 4.55918 159.58 10.0049 155.949C15.4506 152.319 22.9225 150.503 32.4208 150.503C42.0036 150.503 49.5178 152.488 54.9634 156.456C60.4514 160.382 63.2586 165.827 63.3853 172.793H54.3936C53.7181 168.107 51.4385 164.603 47.5548 162.281C43.671 159.96 38.2042 158.799 31.1544 158.799C24.8644 158.799 19.9675 159.812 16.4637 161.838C12.9599 163.864 11.208 166.651 11.208 170.197C11.208 173.152 12.3267 175.431 14.564 177.035C16.8014 178.597 20.9385 179.822 26.9751 180.708L44.642 183.431C52.2406 184.571 57.7074 186.597 61.0424 189.51C64.3773 192.38 66.0448 196.496 66.0448 201.858C66.0448 209.118 63.1531 214.649 57.3697 218.448C51.5863 222.247 43.1434 224.147 32.0409 224.147C22.3315 224.147 14.6907 222.057 9.11836 217.878C3.58824 213.699 0.54879 207.747 0 200.021Z" fill="white"/>
<path d="M84.3448 187.294C84.3448 195.863 86.8355 202.681 91.8168 207.747C96.7981 212.812 103.489 215.345 111.89 215.345C120.248 215.345 126.918 212.812 131.9 207.747C136.881 202.639 139.372 195.821 139.372 187.294C139.372 178.766 136.881 171.97 131.9 166.904C126.918 161.838 120.248 159.305 111.89 159.305C103.489 159.305 96.7981 161.838 91.8168 166.904C86.8355 171.97 84.3448 178.766 84.3448 187.294ZM75.1631 187.294C75.1631 176.318 78.5403 167.453 85.2947 160.698C92.049 153.902 100.914 150.503 111.89 150.503C122.823 150.503 131.689 153.902 138.485 160.698C145.282 167.495 148.68 176.36 148.68 187.294C148.68 198.269 145.282 207.156 138.485 213.952C131.689 220.749 122.823 224.147 111.89 224.147C100.914 224.147 92.049 220.749 85.2947 213.952C78.5403 207.156 75.1631 198.269 75.1631 187.294Z" fill="white"/>
<path d="M163.434 221.677V152.973H172.109V165.637C175.444 160.994 179.539 157.49 184.394 155.126C189.248 152.72 194.736 151.517 200.857 151.517C207.485 151.517 212.888 152.678 217.068 154.999C221.247 157.321 224.329 160.867 226.313 165.637C229.648 160.994 233.742 157.49 238.597 155.126C243.494 152.72 248.982 151.517 255.061 151.517C264.137 151.517 270.807 153.606 275.071 157.785C279.376 161.923 281.529 168.402 281.529 177.225V221.677H272.474V183.051C272.474 174.27 271.039 168.191 268.168 164.814C265.34 161.395 260.464 159.685 253.541 159.685C245.689 159.685 239.23 161.817 234.165 166.081C229.099 170.344 226.566 175.832 226.566 182.544V221.677H218.397V183.051C218.397 174.313 216.962 168.234 214.091 164.814C211.221 161.395 206.303 159.685 199.337 159.685C191.486 159.685 185.027 161.817 179.961 166.081C174.895 170.344 172.362 175.832 172.362 182.544V221.677H163.434Z" fill="white"/>
<path d="M300.843 138.662V128.024H309.771V138.662H300.843ZM300.843 221.677V152.973H309.771V221.677H300.843Z" fill="white"/>
</svg>
